<svg width="28" height="28" viewBox="0 0 28 28" fill="none" xmlns="http://www.w3.org/2000/svg">
<g clip-path="url(#clip0_61_229)">
<path d="M11.4532 0H20.4914C20.8895 0.0344531 21.2357 0.365859 21.2756 0.765078C21.3532 1.24961 20.948 1.74289 20.4547 1.74836C17.5935 1.75273 14.7317 1.74781 11.8699 1.75109C12.4578 5.87234 13.0539 9.99305 13.6379 14.1148C13.6735 14.3587 13.6029 14.6169 13.4427 14.8055C13.1851 15.1227 12.694 15.2042 12.3418 15.0046C12.11 14.8805 11.9437 14.6415 11.9082 14.3817C11.8081 13.6932 11.7086 13.0052 11.6139 12.3162C11.4488 12.483 11.2804 12.6547 11.1764 12.868C10.3889 14.6891 9.602 16.5107 8.81504 18.3323C8.61762 18.7447 8.29114 19.0848 7.9302 19.3594C7.52442 19.6733 7.02731 19.8204 6.55536 20.0014C5.49333 20.399 4.43184 20.7987 3.36981 21.1952C2.84426 21.4025 2.20114 20.9672 2.21262 20.4001C2.18528 20.038 2.41879 19.682 2.75622 19.5535C4.00418 19.0837 5.25325 18.6162 6.50176 18.1486C6.75223 18.0589 6.98301 17.908 7.14872 17.6996C7.25645 17.5591 7.3084 17.3879 7.38059 17.2293C8.1227 15.5088 8.86754 13.7895 9.6102 12.069C9.98481 11.3378 10.6296 10.7887 11.3252 10.3731C11.3121 10.1555 11.2689 9.94219 11.2421 9.72672C10.8593 7.06672 10.4797 4.40672 10.1002 1.74672C10.0357 1.295 10.1658 0.812109 10.4863 0.48125C10.7357 0.208359 11.0884 0.0426562 11.4532 0Z" fill="#6F6F9D"/>
<path d="M15.5675 3.64929C15.9022 3.50601 16.273 3.54593 16.6274 3.54101C19.1414 3.54101 21.6553 3.54046 24.1693 3.54101C24.778 3.535 25.3637 3.94297 25.5546 4.52375C25.6612 4.81086 25.6475 5.12257 25.5896 5.41898C25.1603 8.2857 24.7255 11.1519 24.3006 14.0197C24.6653 14.1012 24.8595 14.4326 25.0224 14.7361C25.2505 15.1561 25.5726 15.54 25.6579 16.0223C25.787 16.6119 25.6103 17.2326 25.2505 17.7078C25.146 17.9019 24.8912 18.1005 25.0175 18.3411C25.204 18.7195 25.3949 19.0963 25.5835 19.4737C25.8351 19.9768 25.8581 20.5882 25.6503 21.1099C25.4277 21.5939 25.1816 22.0664 24.9448 22.5438C24.9038 22.6198 24.8759 22.7095 24.9071 22.7954C25.0011 23.1252 25.1542 23.4412 25.1887 23.7863C25.2598 24.4076 25.0225 25.0578 24.5549 25.4762C24.0096 25.9547 23.4617 26.4305 22.9153 26.9079C22.7524 27.055 22.5325 27.1321 22.3132 27.1255C19.6882 27.1239 17.0632 27.1261 14.4377 27.1244C14.0795 27.1201 13.7306 27.2152 13.3975 27.3405C12.6259 27.5625 11.8548 27.7873 11.0804 28H10.8305C10.4974 27.9316 10.195 27.6845 10.1201 27.3443C9.99979 26.9248 10.2497 26.4392 10.6659 26.303C11.5376 26.0389 12.4219 25.8147 13.2882 25.5314C13.9635 25.3247 14.675 25.3821 15.3707 25.375C17.5773 25.3728 19.7839 25.3788 21.9906 25.3723C22.4199 25.0288 22.8213 24.6482 23.2429 24.2933C23.3304 24.2151 23.4458 24.1391 23.4518 24.0089C23.4026 23.7836 23.3118 23.5703 23.2435 23.3505C23.0723 22.8528 23.1062 22.2868 23.3452 21.8176C23.553 21.4058 23.757 20.9923 23.9648 20.5811C24.0151 20.4783 24.0698 20.3536 24.0042 20.2448C23.8084 19.8379 23.5967 19.4387 23.4021 19.0318C23.1407 18.4652 23.1625 17.7756 23.4677 17.2298C23.5913 17.0127 23.7433 16.8137 23.8762 16.6026C23.9227 16.5233 23.9659 16.4221 23.9189 16.333C23.8204 16.1301 23.6963 15.9403 23.5782 15.7489C21.1139 15.7511 18.6503 15.75 16.1866 15.7494C15.9569 15.7511 15.7354 15.6455 15.5746 15.4842C15.2503 15.1555 15.2635 14.5857 15.5779 14.2543C15.2903 11.3411 14.9911 8.42953 14.7007 5.51742C14.6783 5.26367 14.6269 5.00718 14.6778 4.75398C14.7587 4.26453 15.1049 3.83031 15.5675 3.64929ZM16.4403 5.29101C16.7236 8.19273 17.0299 11.0928 17.3099 13.9956C19.0489 14.006 20.7885 13.9967 22.5282 14C22.9667 11.0977 23.4015 8.19492 23.8346 5.29211C21.3699 5.28937 18.9051 5.29211 16.4403 5.29101Z" fill="#6F6F9D"/>
<path d="M19.6503 9.21321C20.0364 9.13118 20.4597 9.21977 20.7654 9.47407C21.1652 9.78907 21.338 10.3474 21.2056 10.8363C21.0591 11.4286 20.4548 11.8612 19.8461 11.807C19.4102 11.7786 18.993 11.5205 18.7873 11.1333C18.5959 10.7953 18.5691 10.3726 18.713 10.0122C18.8655 9.61079 19.2309 9.3018 19.6503 9.21321Z" fill="#FF5644"/>
</g>
<defs>
<clipPath id="clip0_61_229">
<rect width="28" height="28" fill="white"/>
</clipPath>
</defs>
</svg>
