<svg xmlns="http://www.w3.org/2000/svg" version="1.0" width="347.000000pt" height="112.000000pt" viewBox="0 0 347.000000 112.000000" preserveAspectRatio="xMidYMid meet" transform="matrix(1, 0, 0, 1, 0, 0)">

<g transform="translate(0.000000,112.000000) scale(0.100000,-0.100000)" fill="#ff0004" stroke="none">
<path d="M606 983 c-65 -130 -106 -301 -106 -443 0 -144 44 -323 108 -443 27 -51 36 -55 63 -31 16 14 15 20 -21 97 -114 243 -114 516 -1 754 37 77 38 82 22 97 -28 25 -39 19 -65 -31z" fill="#ff0004"/>
<path d="M751 858 c-47 -104 -65 -190 -65 -318 0 -118 12 -180 53 -291 12 -30 28 -64 35 -75 15 -19 15 -19 37 3 l22 22 -26 58 c-46 102 -60 184 -54 318 4 107 8 130 40 215 33 87 35 96 20 112 -9 10 -20 18 -25 18 -5 0 -22 -28 -37 -62z" fill="#ff0004"/>
<path d="M1272 808 c-17 -17 -17 -509 0 -526 9 -9 113 -12 406 -12 371 0 394 -1 387 -17 -19 -50 -17 -79 9 -110 36 -43 129 -103 185 -120 60 -18 99 -10 156 33 l46 36 61 -27 c75 -34 153 -39 153 -11 0 15 -14 23 -60 36 -92 25 -140 55 -233 142 -103 97 -174 134 -426 217 -94 31 -177 60 -183 64 -23 14 -15 46 12 53 14 4 124 -6 243 -20 292 -37 277 -36 277 -6 0 24 -4 25 -90 37 -49 6 -91 12 -92 12 -2 1 -3 27 -3 60 l0 59 65 16 c74 19 167 21 198 5 12 -6 132 -120 267 -253 257 -254 310 -297 335 -276 8 7 15 16 15 20 0 4 -26 27 -57 50 -32 24 -157 143 -278 265 -121 122 -236 231 -255 241 -44 23 -162 24 -235 2 l-51 -16 -17 29 -16 29 -404 0 c-300 0 -406 -3 -415 -12z m788 -124 l0 -87 -57 7 c-32 4 -99 9 -148 13 -86 5 -92 5 -120 -19 -20 -17 -28 -34 -28 -56 0 -62 19 -75 192 -131 136 -44 161 -55 161 -71 0 -20 -9 -20 -375 -20 l-375 0 0 225 0 225 375 0 375 0 0 -86z m148 -388 c37 -19 87 -55 112 -80 42 -43 43 -46 20 -46 -37 1 -100 32 -168 85 -38 29 -59 52 -55 61 7 20 15 18 91 -20z m-44 -101 c61 -49 129 -77 190 -77 l51 1 -29 -26 c-44 -38 -105 -29 -191 27 -71 46 -85 63 -78 91 7 25 8 25 57 -16z" fill="#ff0004"/>
<path d="M913 734 c-54 -118 -54 -270 0 -388 28 -60 32 -63 61 -41 18 14 18 16 -5 67 -21 46 -24 68 -24 168 0 100 3 122 24 168 23 51 23 53 5 67 -29 22 -33 19 -61 -41z" fill="#ff0004"/>
<path d="M1075 634 c-26 -56 -30 -108 -11 -158 23 -60 36 -69 65 -47 23 18 23 19 7 42 -9 13 -16 43 -16 69 0 26 7 56 16 69 16 23 16 25 -7 42 -32 25 -34 24 -54 -17z" fill="#ff0004"/>
</g>
</svg>